<svg width="30" height="30" viewBox="0 0 30 30" fill="none" xmlns="http://www.w3.org/2000/svg">
<circle cx="15" cy="15" r="15" fill="#FFB800"/>
<path fill-rule="evenodd" clip-rule="evenodd" d="M14.8333 10C14.7412 10 14.6666 10.0746 14.6666 10.1667V15.0001H10.1667C10.0746 15.0001 10 15.0747 10 15.1667C10 15.2588 10.0746 15.3334 10.1667 15.3334H14.6666V19.8333C14.6666 19.9254 14.7412 20 14.8333 20C14.9253 20 14.9999 19.9254 14.9999 19.8333V15.3334H19.8333C19.9254 15.3334 20 15.2588 20 15.1667C20 15.0747 19.9254 15.0001 19.8333 15.0001H14.9999V10.1667C14.9999 10.0746 14.9253 10 14.8333 10Z" fill="black"/>
<path d="M14.6666 15.0001V15.5001H15.1666V15.0001H14.6666ZM14.6666 15.3334H15.1666V14.8334H14.6666V15.3334ZM14.9999 15.3334V14.8334H14.4999V15.3334H14.9999ZM14.9999 15.0001H14.4999V15.5001H14.9999V15.0001ZM15.1666 10.1667C15.1666 10.3508 15.0174 10.5 14.8333 10.5V9.5C14.4651 9.5 14.1666 9.79848 14.1666 10.1667H15.1666ZM15.1666 15.0001V10.1667H14.1666V15.0001H15.1666ZM10.1667 15.5001H14.6666V14.5001H10.1667V15.5001ZM10.5 15.1667C10.5 15.3508 10.3508 15.5001 10.1667 15.5001V14.5001C9.79848 14.5001 9.5 14.7985 9.5 15.1667H10.5ZM10.1667 14.8334C10.3508 14.8334 10.5 14.9826 10.5 15.1667H9.5C9.5 15.5349 9.79848 15.8334 10.1667 15.8334V14.8334ZM14.6666 14.8334H10.1667V15.8334H14.6666V14.8334ZM15.1666 19.8333V15.3334H14.1666V19.8333H15.1666ZM14.8333 19.5C15.0174 19.5 15.1666 19.6492 15.1666 19.8333H14.1666C14.1666 20.2015 14.4651 20.5 14.8333 20.5V19.5ZM14.4999 19.8333C14.4999 19.6492 14.6492 19.5 14.8333 19.5V20.5C15.2015 20.5 15.4999 20.2015 15.4999 19.8333H14.4999ZM14.4999 15.3334V19.8333H15.4999V15.3334H14.4999ZM19.8333 14.8334H14.9999V15.8334H19.8333V14.8334ZM19.5 15.1667C19.5 14.9826 19.6492 14.8334 19.8333 14.8334V15.8334C20.2015 15.8334 20.5 15.5349 20.5 15.1667H19.5ZM19.8333 15.5001C19.6492 15.5001 19.5 15.3508 19.5 15.1667H20.5C20.5 14.7985 20.2015 14.5001 19.8333 14.5001V15.5001ZM14.9999 15.5001H19.8333V14.5001H14.9999V15.5001ZM14.4999 10.1667V15.0001H15.4999V10.1667H14.4999ZM14.8333 10.5C14.6492 10.5 14.4999 10.3508 14.4999 10.1667H15.4999C15.4999 9.79848 15.2015 9.5 14.8333 9.5V10.5Z" fill="black"/>
</svg>
